<?xml version="1.0" encoding="utf-8"?>
<!-- Generator: Adobe Illustrator 23.0.1, SVG Export Plug-In . SVG Version: 6.00 Build 0)  -->
<svg version="1.1" id="Calque_1" xmlns="http://www.w3.org/2000/svg" xmlns:xlink="http://www.w3.org/1999/xlink" x="0px" y="0px"
	 viewBox="0 0 9.1 9.1" style="enable-background:new 0 0 9.1 9.1;" xml:space="preserve">
<style type="text/css">
	.st0{fill:#8F9AA6;}
</style>
<path class="st0" d="M4.6,9.1c0.4,0,0.7-0.3,0.7-0.7V5.3h3.1c0.4,0,0.7-0.3,0.7-0.7c0-0.4-0.3-0.7-0.7-0.7H5.2V0.7
	C5.2,0.3,4.9,0,4.6,0C4.2,0,3.9,0.3,3.9,0.7v3.2H0.7C0.3,3.8,0,4.2,0,4.6C0,5,0.3,5.3,0.7,5.3h3.1v3.1C3.9,8.8,4.2,9.1,4.6,9.1z"/>
</svg>
