<svg width="10" height="16" viewBox="0 0 10 16" fill="none" xmlns="http://www.w3.org/2000/svg">
<path d="M8.88388 2.88388C9.37204 2.39573 9.37204 1.60427 8.88389 1.11612C8.39573 0.627962 7.60427 0.627962 7.11612 1.11612L8.88388 2.88388ZM7.11612 14.8839C7.60427 15.372 8.39573 15.372 8.88388 14.8839C9.37204 14.3957 9.37204 13.6043 8.88388 13.1161L7.11612 14.8839ZM2 8L1.11612 7.11612C0.881695 7.35054 0.749999 7.66848 0.749999 8C0.749999 8.33152 0.881695 8.64946 1.11612 8.88388L2 8ZM8.88388 13.1161L2.88388 7.11612L1.11612 8.88388L7.11612 14.8839L8.88388 13.1161ZM2.88388 8.88388L8.88388 2.88388L7.11612 1.11612L1.11612 7.11612L2.88388 8.88388Z" fill="#232428"/>
</svg>
