<svg fill="none" height="24" viewBox="0 0 13 24" width="13" xmlns="http://www.w3.org/2000/svg"><path d="m12.2274.0049936-3.04755-.0049936c-3.42383 0-5.63646 2.31828-5.63646 5.90643v2.72326h-3.06419c-.264783 0-.4792.21922-.4792.48963v3.94568c0 .2704.214662.4894.4792.4894h3.06419v9.9562c0 .2704.21442.4894.4792.4894h3.99789c.26478 0 .4792-.2192.4792-.4894v-9.9562h3.58272c.2648 0 .4792-.219.4792-.4894l.0015-3.94568c0-.12984-.0506-.25418-.1403-.34606-.0898-.09188-.212-.14357-.3391-.14357h-3.58402v-2.30854c0-1.10958.25892-1.67286 1.67422-1.67286l2.053-.00074c.2646 0 .479-.21922.479-.48938v-3.663803c0-.269905-.2142-.48887404-.4785-.4893734z" fill="#0941de"/></svg>