<svg fill="none" height="24" viewBox="0 0 24 24" width="24" xmlns="http://www.w3.org/2000/svg"><g fill="#0941de"><path d="m17.5034 0h-11.00682c-3.58227 0-6.49658 2.91431-6.49658 6.49658v11.00702c0 3.5821 2.91431 6.4964 6.49658 6.4964h11.00702c3.5821 0 6.4964-2.9143 6.4964-6.4964v-11.00702c0-3.58227-2.9143-6.49658-6.4966-6.49658zm-5.5034 18.5623c-3.61853 0-6.56232-2.9438-6.56232-6.5623 0-3.61853 2.94379-6.56232 6.56232-6.56232 3.6185 0 6.5623 2.94379 6.5623 6.56232 0 3.6185-2.9438 6.5623-6.5623 6.5623zm6.7192-11.57701c-1.0693 0-1.939-.86975-1.939-1.93909 0-1.06933.8697-1.93927 1.939-1.93927 1.0694 0 1.9393.86994 1.9393 1.93927 0 1.06934-.8699 1.93909-1.9393 1.93909z"/><path d="m12 8c-2.20551 0-4 1.79435-4 4 0 2.2055 1.79449 4 4 4 2.2056 0 4-1.7945 4-4 0-2.20565-1.7944-4-4-4z"/></g></svg>