<svg fill="none" height="24" viewBox="0 0 24 24" width="24" xmlns="http://www.w3.org/2000/svg"><path d="m22.2278 0h-20.45436c-.979438 0-1.77328741.769631-1.77328741 1.71955v20.56015c0 .95.79412841 1.7203 1.77328741 1.7203h20.45436c.9792 0 1.7721-.7708 1.7721-1.7203v-20.56015c0-.94964-.7929-1.71955-1.7721-1.71955zm-14.9516 20.0896h-3.62619v-10.83567h3.62619zm-1.81273-12.31601h-.02439c-1.21602 0-2.00429-.83163-2.00429-1.87277 0-1.06213.81143-1.87121 2.05155-1.87121 1.24024 0 2.00312.80886 2.02723 1.87121 0 1.04137-.78671 1.87277-2.0501 1.87277zm14.88413 12.31601h-3.6251v-5.7974c0-1.4568-.5252-2.4508-1.8361-2.4508-1.0029 0-1.5982.6706-1.8596 1.318-.0969.2313-.1209.5547-.1209.8776v6.0524h-3.62435s.04743-9.8194 0-10.83564h3.62495v1.53624c.4812-.7382 1.3411-1.79119 3.2661-1.79119 2.3859 0 4.175 1.54779 4.175 4.87759zm-7.4646-9.2652c.0062-.0102.0149-.0224.0235-.0343v.0343z" fill="#0941de"/></svg>