<svg fill="none" height="24" width="24" xmlns="http://www.w3.org/2000/svg"><g fill="#0941de"><path d="M17.503 0H6.497A6.504 6.504 0 000 6.497v11.007A6.504 6.504 0 006.497 24h11.007A6.504 6.504 0 0024 17.504V6.497A6.504 6.504 0 0017.503 0zM12 18.562A6.57 6.57 0 015.438 12 6.57 6.57 0 0112 5.438 6.57 6.57 0 0118.562 12 6.57 6.57 0 0112 18.562zm6.72-11.577c-1.07 0-1.94-.87-1.94-1.939 0-1.07.87-1.94 1.94-1.94 1.069 0 1.939.87 1.939 1.94 0 1.07-.87 1.94-1.94 1.94z"/><path d="M12 8c-2.206 0-4 1.794-4 4 0 2.205 1.794 4 4 4s4-1.794 4-4-1.794-4-4-4z"/></g></svg>