<svg width="24" height="25" fill="none" xmlns="http://www.w3.org/2000/svg"><g clip-path="url(#clip0)"><path d="M21.982 11.653l-4.474 4.472a6.324 6.324 0 01-8.945 0 6.323 6.323 0 01-.96-1.276l2.078-2.078c.099-.1.221-.157.338-.224.143.49.394.955.78 1.342a3.165 3.165 0 004.473 0l4.472-4.473a3.165 3.165 0 000-4.473 3.166 3.166 0 00-4.472 0l-1.59 1.592a7.936 7.936 0 00-4.036-.44l3.39-3.388a6.326 6.326 0 018.946 8.946zm-11.827 7.354l-1.592 1.592a3.168 3.168 0 01-4.473 0 3.168 3.168 0 010-4.474l4.473-4.472a3.165 3.165 0 014.473 0c.385.385.636.85.78 1.34.118-.068.239-.123.337-.222l2.08-2.078a6.213 6.213 0 00-.961-1.277 6.326 6.326 0 00-8.946 0L1.853 13.89a6.327 6.327 0 008.946 8.946l3.39-3.39a7.93 7.93 0 01-4.034-.438z" fill="#A6A6A6"/></g><defs><clipPath id="clip0"><path fill="#fff" transform="translate(0 .852)" d="M0 0h23.833v23.833H0z"/></clipPath></defs></svg>