<svg width="26" height="27" fill="none" xmlns="http://www.w3.org/2000/svg"><path d="M24.08.107H1.92C.86.107 0 .941 0 1.97v22.274c0 1.029.86 1.863 1.921 1.863H24.08c1.06 0 1.92-.835 1.92-1.863V1.97C26 .941 25.14.107 24.08.107zM7.882 21.871H3.954V10.133h3.928V21.87zM5.92 8.53h-.027c-1.317 0-2.171-.901-2.171-2.029 0-1.15.879-2.027 2.222-2.027 1.344 0 2.17.876 2.197 2.027 0 1.128-.853 2.029-2.221 2.029zm16.123 13.34h-3.927v-6.28c0-1.579-.57-2.655-1.99-2.655-1.086 0-1.73.726-2.014 1.428-.105.25-.13.6-.13.95v6.557h-3.927s.051-10.638 0-11.739h3.927v1.665c.521-.8 1.453-1.94 3.538-1.94 2.585 0 4.523 1.676 4.523 5.283v6.731zm-8.087-10.037a.68.68 0 01.026-.037v.037h-.026z" fill="#A6A6A6"/></svg>