<svg fill="none" height="24" width="24" xmlns="http://www.w3.org/2000/svg"><path d="M22.228 0H1.773C.794 0 0 .77 0 1.72v20.56C0 23.23.794 24 1.773 24h20.455c.979 0 1.772-.77 1.772-1.72V1.72C24 .77 23.207 0 22.228 0zM7.276 20.09H3.65V9.254h3.626zM5.463 7.774H5.44c-1.216 0-2.004-.832-2.004-1.873 0-1.062.811-1.871 2.051-1.871 1.24 0 2.003.808 2.028 1.87 0 1.042-.787 1.874-2.05 1.874zM20.348 20.09h-3.625v-5.798c0-1.457-.526-2.45-1.837-2.45-1.002 0-1.598.67-1.86 1.317-.096.232-.12.555-.12.878v6.052H9.282s.047-9.819 0-10.835h3.624v1.536c.482-.738 1.342-1.791 3.267-1.791 2.386 0 4.175 1.548 4.175 4.877zm-7.465-9.266a.564.564 0 01.024-.034v.034z" fill="#0941de"/></svg>