<svg width="26" height="22" fill="none" xmlns="http://www.w3.org/2000/svg"><path d="M26 2.723c-.957.426-1.984.714-3.063.843A5.37 5.37 0 0025.282.608a10.733 10.733 0 01-3.39 1.299A5.31 5.31 0 0018 .217c-2.946 0-5.334 2.396-5.334 5.349 0 .418.047.828.138 1.219a15.137 15.137 0 01-10.992-5.59 5.322 5.322 0 00-.722 2.689 5.35 5.35 0 002.372 4.452 5.322 5.322 0 01-2.416-.671v.067a5.351 5.351 0 004.278 5.246c-.447.12-.918.187-1.405.187-.345 0-.678-.034-1.004-.1a5.339 5.339 0 004.981 3.717 10.68 10.68 0 01-6.624 2.286c-.43 0-.854-.026-1.272-.073a15.042 15.042 0 008.175 2.407c9.812 0 15.175-8.152 15.175-15.222l-.018-.693A10.67 10.67 0 0026 2.723z" fill="#A6A6A6"/></svg>