<svg fill="none" height="20" width="24" xmlns="http://www.w3.org/2000/svg"><path d="M24 2.314a9.808 9.808 0 01-2.827.778A4.957 4.957 0 0023.337.36a9.907 9.907 0 01-3.128 1.2A4.903 4.903 0 0016.615 0a4.931 4.931 0 00-4.923 4.937c0 .387.043.765.127 1.126A13.963 13.963 0 011.672.903a4.913 4.913 0 00-.666 2.482 4.94 4.94 0 002.19 4.11 4.912 4.912 0 01-2.23-.62v.062a4.94 4.94 0 003.949 4.842 4.97 4.97 0 01-1.298.173 4.71 4.71 0 01-.927-.091 4.928 4.928 0 004.599 3.43 9.858 9.858 0 01-6.115 2.11c-.397 0-.789-.024-1.174-.067a13.886 13.886 0 007.547 2.222c9.056 0 14.007-7.525 14.007-14.051l-.016-.64A9.848 9.848 0 0024 2.314z" fill="#0941de"/></svg>