<svg fill="none" height="20" viewBox="0 0 24 20" width="24" xmlns="http://www.w3.org/2000/svg"><path d="m24 2.31373c-.8833.39263-1.8311.65891-2.827.77779 1.0168-.6108 1.7952-1.57961 2.1641-2.730478-.9538.565638-2.0066.976368-3.1284 1.199018-.8984-.9613-2.1761-1.56006-3.5934-1.56006-2.719 0-4.9236 2.21145-4.9236 4.9374 0 .38661.0435.76422.1275 1.1253-4.09119-.20613-7.719-2.17235-10.14704-5.160095-.42443.728145-.66588 1.576575-.66588 2.482255 0 1.71351.86984 3.22542 2.18961 4.10997-.80687-.02707-1.56573-.24972-2.230084-.61981v.06168c0 2.39198 1.697684 4.3883 3.948754 4.8426-.41243.1114-.84734.173-1.29726.173-.31792 0-.62537-.0315-.92683-.0917.62687 1.9632 2.44456 3.3909 4.59817 3.43-1.6842 1.3239-3.80781 2.1107-6.11436 2.1107-.397416 0-.788868-.0241-1.17428-.0677 2.1791 1.4036 4.76613 2.222 7.5466 2.222 9.0568 0 14.0074-7.525 14.0074-14.05103l-.0165-.63935c.9673-.69207 1.8041-1.56159 2.4625-2.55149z" fill="#0941de"/></svg>