<svg width="28" height="19" fill="none" xmlns="http://www.w3.org/2000/svg"><path d="M26.909 1.631C25.898.473 24.032 0 20.469 0H7.531C3.886 0 1.989.503.982 1.736 0 2.94 0 4.711 0 7.163v4.674C0 16.587 1.165 19 7.532 19h12.936c3.09 0 4.803-.417 5.911-1.44C27.515 16.513 28 14.8 28 11.838V7.163c0-2.586-.076-4.368-1.091-5.532zm-8.933 8.514l-5.874 2.96a.93.93 0 01-.887-.026.865.865 0 01-.435-.745V6.432c0-.304.165-.586.434-.744a.932.932 0 01.886-.029l5.874 2.942c.299.15.487.447.487.771a.867.867 0 01-.485.773z" fill="#0941DE"/></svg>