<svg width="24" height="24" viewBox="0 0 24 24" fill="none" xmlns="http://www.w3.org/2000/svg">
<path d="M22.0004 16.9201V19.9201C22.0015 20.1986 21.9444 20.4743 21.8329 20.7294C21.7213 20.9846 21.5577 21.2137 21.3524 21.402C21.1472 21.5902 20.9049 21.7336 20.6411 21.8228C20.3773 21.912 20.0977 21.9452 19.8204 21.9201C16.7432 21.5857 13.7874 20.5342 11.1904 18.8501C8.77419 17.3148 6.7257 15.2663 5.19036 12.8501C3.50034 10.2413 2.4486 7.27109 2.12036 4.1801C2.09537 3.90356 2.12824 3.62486 2.21686 3.36172C2.30549 3.09859 2.44793 2.85679 2.63513 2.65172C2.82232 2.44665 3.05017 2.28281 3.30415 2.17062C3.55814 2.05843 3.8327 2.00036 4.11036 2.0001H7.11036C7.59567 1.99532 8.06615 2.16718 8.43412 2.48363C8.80209 2.80008 9.04244 3.23954 9.11036 3.7201C9.23698 4.68016 9.47181 5.62282 9.81036 6.5301C9.9449 6.88802 9.97402 7.27701 9.89427 7.65098C9.81451 8.02494 9.62922 8.36821 9.36036 8.6401L8.09036 9.91009C9.51392 12.4136 11.5868 14.4865 14.0904 15.9101L15.3604 14.6401C15.6322 14.3712 15.9755 14.1859 16.3495 14.1062C16.7234 14.0264 17.1124 14.0556 17.4704 14.1901C18.3776 14.5286 19.3203 14.7635 20.2804 14.8901C20.7661 14.9586 21.2098 15.2033 21.5269 15.5776C21.844 15.9519 22.0125 16.4297 22.0004 16.9201Z" stroke="black" stroke-width="2" stroke-linecap="round" stroke-linejoin="round"/>
</svg>
