<?xml version="1.0" encoding="utf-8"?>
<!-- Generator: Adobe Illustrator 23.0.1, SVG Export Plug-In . SVG Version: 6.00 Build 0)  -->
<svg version="1.1" id="Calque_1" xmlns="http://www.w3.org/2000/svg" xmlns:xlink="http://www.w3.org/1999/xlink" x="0px" y="0px"
	 viewBox="0 0 27.1 36.6" style="enable-background:new 0 0 27.1 36.6;" xml:space="preserve">
<style type="text/css">
	.st0{fill:#EB5B5D;stroke:#FFFFFF;stroke-miterlimit:10;}
	.st1{fill:#FFFFFF;}
	.st2{display:none;fill:#61B987;}
	.st3{display:none;fill:#FFFFFF;}
	.st4{display:none;fill:#2DABE3;}
	.st5{display:none;fill:#FDC53C;}
</style>
<path class="st0" d="M13.6,1.4C6.7,1.4,1,7,1,14c0,3.7,2.3,9,4.5,12.6c1.5,2.3,5,7.8,8,7.8s6.7-5.5,8-7.8C23.8,22.9,26,17.7,26,14
	C26.2,7.1,20.6,1.4,13.6,1.4z"/>
<circle class="st1" cx="13.6" cy="14.3" r="3.5"/>
<path class="st2" d="M13.6,3.1c-6.2,0-11.3,5-11.3,11.3c0,3.3,2.1,8.1,4,11.3c1.3,2.1,4.5,7,7.2,7s6-4.9,7.2-7c2-3.3,4-8,4-11.3
	C24.9,8.2,19.9,3.1,13.6,3.1z"/>
<circle class="st3" cx="13.6" cy="14.3" r="3.5"/>
<path class="st4" d="M13.6,3.2c-6.2,0-11.3,5-11.3,11.3c0,3.3,2.1,8.1,4,11.3c1.3,2.1,4.5,7,7.2,7s6-4.9,7.2-7c2-3.3,4-8,4-11.3
	C24.8,8.3,19.8,3.2,13.6,3.2z"/>
<circle class="st3" cx="13.6" cy="14.4" r="3.5"/>
<path class="st5" d="M13.6,2.6c-6.2,0-11.3,5-11.3,11.3c0,3.3,2.1,8.1,4,11.3c1.3,2.1,4.5,7,7.2,7s6-4.9,7.2-7c2-3.3,4-8,4-11.3
	C24.8,7.7,19.8,2.6,13.6,2.6z"/>
<circle class="st3" cx="13.6" cy="14.1" r="3.5"/>
</svg>
