<svg width="14" height="13" viewBox="0 0 14 13" fill="none" xmlns="http://www.w3.org/2000/svg">
<path d="M3.78834 9.69233C4.05616 9.96015 4.49038 9.96015 4.7582 9.69233L6.97715 7.47338L9.17898 9.67521C9.46886 9.96509 9.93884 9.96509 10.2287 9.67521C10.5186 9.38534 10.5186 8.91536 10.2287 8.62548L8.02688 6.42365L10.2572 4.19329C10.5251 3.92547 10.5251 3.49125 10.2572 3.22343C9.98942 2.95561 9.5552 2.95561 9.28738 3.22343L7.05702 5.45379L4.84378 3.24054C4.5539 2.95067 4.08392 2.95067 3.79404 3.24054C3.50417 3.53042 3.50417 4.0004 3.79404 4.29027L6.00729 6.50352L3.78834 8.72247C3.52052 8.99029 3.52052 9.42451 3.78834 9.69233Z" fill="#0941DE"/>
</svg>
