<?xml version="1.0" encoding="utf-8"?>
<!-- Generator: Adobe Illustrator 23.0.1, SVG Export Plug-In . SVG Version: 6.00 Build 0)  -->
<svg version="1.1" id="Calque_1" xmlns="http://www.w3.org/2000/svg" xmlns:xlink="http://www.w3.org/1999/xlink" x="0px" y="0px"
	 viewBox="0 0 6.9 6.9" style="enable-background:new 0 0 6.9 6.9;" xml:space="preserve">
<style type="text/css">
	.st0{fill:#FFFFFF;}
</style>
<path class="st0" d="M0.2,6.7c0.3,0.3,0.7,0.3,1,0l2.2-2.2l2.2,2.2c0.3,0.3,0.8,0.3,1,0c0.3-0.3,0.3-0.8,0-1L4.5,3.4l2.2-2.2
	c0.3-0.3,0.3-0.7,0-1c-0.3-0.3-0.7-0.3-1,0L3.5,2.4L1.3,0.2c-0.3-0.3-0.8-0.3-1,0c-0.3,0.3-0.3,0.8,0,1l2.2,2.2L0.2,5.7
	C-0.1,6-0.1,6.4,0.2,6.7z"/>
</svg>
