<svg width="8" height="12" viewBox="0 0 8 12" fill="none" xmlns="http://www.w3.org/2000/svg">
<path d="M6.88388 2.88388C7.37204 2.39573 7.37204 1.60427 6.88388 1.11612C6.39573 0.627962 5.60427 0.627962 5.11612 1.11612L6.88388 2.88388ZM5.11611 10.8839C5.60427 11.372 6.39573 11.372 6.88388 10.8839C7.37204 10.3957 7.37204 9.60427 6.88388 9.11612L5.11611 10.8839ZM2 6L1.11612 5.11612C0.627961 5.60427 0.62796 6.39573 1.11612 6.88388L2 6ZM6.88388 9.11612L2.88388 5.11612L1.11612 6.88388L5.11611 10.8839L6.88388 9.11612ZM2.88388 6.88388L6.88388 2.88388L5.11612 1.11612L1.11612 5.11612L2.88388 6.88388Z" fill="#8A3D3D"/>
</svg>
