<svg width="10" height="16" viewBox="0 0 10 16" fill="none" xmlns="http://www.w3.org/2000/svg">
<path d="M1.11611 13.1161C0.627959 13.6043 0.627959 14.3957 1.11611 14.8839C1.60427 15.372 2.39573 15.372 2.88388 14.8839L1.11611 13.1161ZM2.88388 1.11612C2.39573 0.627961 1.60427 0.627961 1.11612 1.11612C0.62796 1.60427 0.62796 2.39573 1.11612 2.88388L2.88388 1.11612ZM8 8L8.88388 8.88388C9.1183 8.64946 9.25 8.33152 9.25 8C9.25 7.66848 9.1183 7.35054 8.88388 7.11612L8 8ZM1.11612 2.88388L7.11612 8.88388L8.88388 7.11612L2.88388 1.11612L1.11612 2.88388ZM7.11612 7.11612L1.11611 13.1161L2.88388 14.8839L8.88388 8.88388L7.11612 7.11612Z" fill="#232428"/>
</svg>
