<svg width="26" height="27" viewBox="0 0 26 27" fill="none" xmlns="http://www.w3.org/2000/svg">
<path d="M24.0799 0.107422H1.92106C0.860003 0.107422 0 0.941188 0 1.97026V24.2438C0 25.2729 0.860305 26.1074 1.92106 26.1074H24.0799C25.1407 26.1074 25.9998 25.2724 25.9998 24.2438V1.97026C25.9998 0.941491 25.1407 0.107422 24.0799 0.107422ZM7.88238 21.8712H3.95401V10.1325H7.88238V21.8712ZM5.91859 8.52881H5.89217C4.57482 8.52881 3.72086 7.62788 3.72086 6.49997C3.72086 5.34934 4.5999 4.47283 5.94337 4.47283C7.28697 4.47283 8.11342 5.34909 8.13953 6.49997C8.13953 7.62813 7.28727 8.52881 5.91859 8.52881ZM22.043 21.8712H18.1159V15.5906C18.1159 14.0125 17.5469 12.9356 16.1267 12.9356C15.0403 12.9356 14.3954 13.6621 14.1122 14.3635C14.0072 14.614 13.9812 14.9643 13.9812 15.3142V21.8709H10.0548C10.0548 21.8709 10.1062 11.2333 10.0548 10.1323H13.9818V11.7965C14.5031 10.9969 15.4347 9.85614 17.5201 9.85614C20.1049 9.85614 22.043 11.5329 22.043 15.1402V21.8712ZM13.9564 11.8338C13.9632 11.8228 13.9725 11.8096 13.9818 11.7967V11.8338H13.9564Z" fill="#A6A6A6"/>
</svg>
