<svg width="24" height="25" viewBox="0 0 24 25" fill="none" xmlns="http://www.w3.org/2000/svg">
<g clip-path="url(#clip0)">
<path d="M21.9819 11.6526L17.5078 16.1252C15.0385 18.596 11.0326 18.596 8.5629 16.1252C8.17388 15.7372 7.86954 15.3001 7.60228 14.8494L9.68112 12.7707C9.77994 12.671 9.90197 12.6139 10.0186 12.5467C10.1623 13.0377 10.4132 13.5025 10.7993 13.8887C12.0325 15.1229 14.0392 15.1212 15.2717 13.8887L19.7443 9.41624C20.9785 8.18221 20.9785 6.17601 19.7443 4.94291C18.5118 3.70981 16.5057 3.70981 15.2717 4.94291L13.6812 6.5351C12.3905 6.03255 11 5.89743 9.64633 6.09581L13.0355 2.70674C15.5063 0.236425 19.5111 0.236425 21.9819 2.70674C24.4515 5.17695 24.4515 9.18241 21.9819 11.6526ZM10.1545 19.007L8.56285 20.5992C7.32975 21.8317 5.32298 21.8317 4.08967 20.5992C2.85647 19.365 2.85647 17.3588 4.08967 16.1252L8.56285 11.6526C9.79694 10.4186 11.8024 10.4186 13.0355 11.6526C13.4207 12.0379 13.6719 12.5027 13.8169 12.9931C13.9342 12.9249 14.0547 12.8696 14.1535 12.7706L16.2322 10.6928C15.9667 10.2402 15.6608 9.8047 15.2716 9.41635C12.8025 6.94603 8.79621 6.94603 6.3259 9.41635L1.8534 13.889C-0.61666 16.3601 -0.61666 20.3644 1.8534 22.8352C4.32371 25.3047 8.32902 25.3047 10.7993 22.8352L14.1893 19.4454C12.8349 19.6449 11.444 19.5087 10.1545 19.007Z" fill="#A6A6A6"/>
</g>
<defs>
<clipPath id="clip0">
<rect width="23.8333" height="23.8333" fill="white" transform="translate(0 0.852051)"/>
</clipPath>
</defs>
</svg>
