<svg width="26" height="22" viewBox="0 0 26 22" fill="none" xmlns="http://www.w3.org/2000/svg">
<path d="M26 2.72334C25.0431 3.14869 24.0163 3.43715 22.9374 3.56594C24.039 2.90424 24.8822 1.8547 25.2819 0.607926C24.2486 1.2207 23.108 1.66565 21.8927 1.90686C20.9195 0.865454 19.5353 0.216797 17.9999 0.216797C15.0544 0.216797 12.6661 2.61254 12.6661 5.56565C12.6661 5.98448 12.7132 6.39355 12.8042 6.78472C8.37201 6.56141 4.44189 4.43134 1.81151 1.19462C1.3517 1.98344 1.09013 2.90258 1.09013 3.88373C1.09013 5.74003 2.03246 7.37793 3.46221 8.33619C2.58811 8.30687 1.76601 8.06567 1.04629 7.66474V7.73156C1.04629 10.3229 2.88545 12.4855 5.3241 12.9777C4.8773 13.0984 4.40616 13.1652 3.91874 13.1652C3.57433 13.1652 3.24125 13.131 2.91468 13.0658C3.59378 15.1926 5.56295 16.7392 7.89603 16.7816C6.07148 18.2158 3.7709 19.0682 1.27213 19.0682C0.841603 19.0682 0.41753 19.0421 0 18.9948C2.36069 20.5154 5.1633 21.402 8.17548 21.402C17.987 21.402 23.3502 13.2499 23.3502 6.18008L23.3323 5.48745C24.3802 4.73771 25.2867 3.79572 26 2.72334Z" fill="#A6A6A6"/>
</svg>
