<svg width="28" height="19" viewBox="0 0 28 19" fill="none" xmlns="http://www.w3.org/2000/svg">
<path d="M26.9086 1.63101C25.8979 0.472548 24.0319 0 20.4681 0H7.53164C3.88631 0 1.98863 0.50303 0.981716 1.73639C0 2.93893 0 4.71077 0 7.16304V11.8371C0 16.5879 1.1648 19 7.53164 19H20.4682C23.5587 19 25.2712 18.583 26.3791 17.5607C27.5152 16.5123 28 14.8005 28 11.8371V7.16304C28 4.57691 27.924 2.79462 26.9086 1.63101ZM17.9761 10.1453L12.1017 13.1056C11.9704 13.1718 11.8267 13.2046 11.6833 13.2046C11.5209 13.2046 11.3589 13.1625 11.2154 13.0787C10.9451 12.9208 10.7801 12.6384 10.7801 12.3337V6.43218C10.7801 6.12806 10.9447 5.84589 11.2144 5.68791C11.4842 5.52993 11.8197 5.51913 12.0996 5.65935L17.974 8.60054C18.2729 8.75016 18.4606 9.04766 18.461 9.37224C18.4614 9.69708 18.2745 9.99502 17.9761 10.1453Z" fill="#0941DE"/>
</svg>
